<svg width="856" height="856" viewBox="0 0 856 856" fill="none" xmlns="http://www.w3.org/2000/svg">
<rect width="856" height="856" fill="white"/>
<g clip-path="url(#clip0_12_56)">
<g clip-path="url(#clip1_12_56)">
<g clip-path="url(#clip2_12_56)">
<rect width="600" height="600" transform="translate(128 74)" fill="white"/>
<rect x="92" y="165" width="660" height="660" fill="white"/>
<rect x="240" y="374.76" width="11" height="69" rx="5.5" transform="rotate(-78 240 374.76)" fill="#FDA01F"/>
<rect x="615.492" y="364" width="11" height="69" rx="5.5" transform="rotate(78 615.492 364)" fill="#FDA01F"/>
<rect x="302" y="263.923" width="11" height="69" rx="5.5" transform="rotate(-39 302 263.923)" fill="#FDA01F"/>
<rect x="550.423" y="257" width="11" height="69" rx="5.5" transform="rotate(39 550.423 257)" fill="#FDA01F"/>
<circle cx="428" cy="411" r="84" fill="#FDA01F"/>
<ellipse cx="427.5" cy="652.5" rx="299.5" ry="198.5" fill="#0A168F"/>
<ellipse cx="427.5" cy="575.5" rx="263.5" ry="98.5" fill="white"/>
<rect x="422" y="219" width="11" height="69" rx="5.5" fill="#FDA01F"/>
<rect x="32" y="534" width="791" height="317" fill="white"/>
</g>
</g>
</g>
<g clip-path="url(#clip3_12_56)">
<path d="M15.77 738V613.74H49.02C68.02 613.74 82.84 618.87 93.48 629.13C104.12 639.39 109.44 654.78 109.44 675.3C109.44 695.947 104.183 711.59 93.67 722.23C83.1567 732.743 68.6533 738 50.16 738H15.77ZM37.81 720.14H47.5C60.04 720.14 69.73 716.53 76.57 709.31C83.41 701.963 86.83 690.627 86.83 675.3C86.83 660.1 83.41 649.017 76.57 642.05C69.73 635.083 60.04 631.6 47.5 631.6H37.81V720.14ZM155.23 740.28C147.123 740.28 140.473 737.747 135.28 732.68C130.213 727.613 127.68 721.027 127.68 712.92C127.68 702.913 132.05 695.187 140.79 689.74C149.53 684.167 163.463 680.367 182.59 678.34C182.463 673.4 181.133 669.157 178.6 665.61C176.193 661.937 171.823 660.1 165.49 660.1C160.93 660.1 156.433 660.987 152 662.76C147.693 664.533 143.45 666.687 139.27 669.22L131.29 654.59C136.483 651.297 142.31 648.447 148.77 646.04C155.357 643.633 162.323 642.43 169.67 642.43C181.323 642.43 190 645.913 195.7 652.88C201.527 659.72 204.44 669.663 204.44 682.71V738H186.39L184.87 727.74H184.11C179.93 731.287 175.433 734.263 170.62 736.67C165.933 739.077 160.803 740.28 155.23 740.28ZM162.26 723.18C166.06 723.18 169.48 722.293 172.52 720.52C175.687 718.62 179.043 716.087 182.59 712.92V692.02C169.923 693.667 161.12 696.137 156.18 699.43C151.24 702.597 148.77 706.523 148.77 711.21C148.77 715.39 150.037 718.43 152.57 720.33C155.103 722.23 158.333 723.18 162.26 723.18ZM230.589 738V644.71H252.439V738H230.589ZM241.609 628.37C237.682 628.37 234.515 627.23 232.109 624.95C229.702 622.67 228.499 619.63 228.499 615.83C228.499 612.157 229.702 609.18 232.109 606.9C234.515 604.62 237.682 603.48 241.609 603.48C245.535 603.48 248.702 604.62 251.109 606.9C253.515 609.18 254.719 612.157 254.719 615.83C254.719 619.63 253.515 622.67 251.109 624.95C248.702 627.23 245.535 628.37 241.609 628.37ZM301.595 740.28C293.869 740.28 288.359 737.937 285.065 733.25C281.899 728.563 280.315 722.167 280.315 714.06V603.86H302.165V715.2C302.165 717.86 302.672 719.76 303.685 720.9C304.699 721.913 305.775 722.42 306.915 722.42C307.422 722.42 307.865 722.42 308.245 722.42C308.752 722.293 309.449 722.167 310.335 722.04L313.185 738.38C311.919 738.887 310.272 739.33 308.245 739.71C306.345 740.09 304.129 740.28 301.595 740.28ZM338.167 776.38C335.634 776.38 333.417 776.19 331.517 775.81C329.617 775.43 327.781 774.987 326.007 774.48L329.997 757.38C330.884 757.633 331.897 757.887 333.037 758.14C334.304 758.52 335.507 758.71 336.647 758.71C341.587 758.71 345.514 757.19 348.427 754.15C351.467 751.237 353.747 747.437 355.267 742.75L356.977 736.86L320.307 644.71H342.537L358.687 690.5C360.081 694.553 361.411 698.86 362.677 703.42C364.071 707.853 365.464 712.287 366.857 716.72H367.617C368.757 712.413 369.897 708.043 371.037 703.61C372.304 699.05 373.507 694.68 374.647 690.5L388.707 644.71H409.797L375.977 742.18C372.051 752.693 367.301 760.99 361.727 767.07C356.154 773.277 348.301 776.38 338.167 776.38ZM488.137 738L449.377 613.74H472.747L490.227 676.25C492.253 683.217 494.09 689.93 495.737 696.39C497.383 702.85 499.22 709.627 501.247 716.72H502.007C504.16 709.627 505.997 702.85 507.517 696.39C509.163 689.93 510.937 683.217 512.837 676.25L530.127 613.74H552.737L514.167 738H488.137ZM565.872 738V644.71H587.722V738H565.872ZM576.892 628.37C572.965 628.37 569.799 627.23 567.392 624.95C564.985 622.67 563.782 619.63 563.782 615.83C563.782 612.157 564.985 609.18 567.392 606.9C569.799 604.62 572.965 603.48 576.892 603.48C580.819 603.48 583.985 604.62 586.392 606.9C588.799 609.18 590.002 612.157 590.002 615.83C590.002 619.63 588.799 622.67 586.392 624.95C583.985 627.23 580.819 628.37 576.892 628.37ZM655.499 740.28C646.885 740.28 639.095 738.38 632.129 734.58C625.162 730.653 619.652 725.08 615.599 717.86C611.545 710.513 609.519 701.71 609.519 691.45C609.519 681.317 611.545 672.577 615.599 665.23C619.779 657.883 625.162 652.247 631.749 648.32C638.335 644.393 645.239 642.43 652.459 642.43C660.945 642.43 668.039 644.33 673.739 648.13C679.439 651.803 683.745 656.997 686.659 663.71C689.572 670.297 691.029 677.96 691.029 686.7C691.029 691.26 690.712 694.807 690.079 697.34H630.799C631.812 705.573 634.789 711.97 639.729 716.53C644.669 721.09 650.875 723.37 658.349 723.37C662.402 723.37 666.139 722.8 669.559 721.66C673.105 720.393 676.589 718.683 680.009 716.53L687.419 730.21C682.985 733.123 678.045 735.53 672.599 737.43C667.152 739.33 661.452 740.28 655.499 740.28ZM630.609 682.52H672.029C672.029 675.3 670.445 669.663 667.279 665.61C664.112 661.43 659.362 659.34 653.029 659.34C647.582 659.34 642.705 661.367 638.399 665.42C634.219 669.347 631.622 675.047 630.609 682.52ZM727.287 738L702.587 644.71H724.627L735.837 693.16C736.851 697.593 737.674 702.027 738.307 706.46C739.067 710.893 739.891 715.39 740.777 719.95H741.537C742.424 715.39 743.311 710.893 744.197 706.46C745.211 701.9 746.287 697.467 747.427 693.16L759.587 644.71H779.537L791.887 693.16C793.027 697.593 794.104 702.027 795.117 706.46C796.131 710.893 797.144 715.39 798.157 719.95H798.917C799.804 715.39 800.627 710.893 801.387 706.46C802.147 702.027 802.971 697.593 803.857 693.16L815.067 644.71H835.587L811.837 738H785.807L774.977 694.49C773.964 690.057 773.014 685.687 772.127 681.38C771.241 676.947 770.291 672.26 769.277 667.32H768.517C767.631 672.26 766.744 676.947 765.857 681.38C764.971 685.813 764.021 690.247 763.007 694.68L752.367 738H727.287Z" fill="#0A168F"/>
</g>
<defs>
<clipPath id="clip0_12_56">
<rect width="600" height="600" fill="white" transform="translate(128 74)"/>
</clipPath>
<clipPath id="clip1_12_56">
<rect width="600" height="600" fill="white" transform="translate(128 74)"/>
</clipPath>
<clipPath id="clip2_12_56">
<rect width="600" height="600" fill="white" transform="translate(128 74)"/>
</clipPath>
<clipPath id="clip3_12_56">
<rect width="856" height="200" fill="white" transform="translate(0 592)"/>
</clipPath>
</defs>
</svg>
