<svg width="1455" height="600" viewBox="0 0 1455 600" fill="none" xmlns="http://www.w3.org/2000/svg">
<g clip-path="url(#clip0_11_18)">
<rect width="600" height="600" fill="white"/>
<rect x="-36" y="91" width="660" height="660" fill="white"/>
<rect x="112" y="300.76" width="11" height="69" rx="5.5" transform="rotate(-78 112 300.76)" fill="#FDA01F"/>
<rect x="487.492" y="290" width="11" height="69" rx="5.5" transform="rotate(78 487.492 290)" fill="#FDA01F"/>
<rect x="174" y="189.923" width="11" height="69" rx="5.5" transform="rotate(-39 174 189.923)" fill="#FDA01F"/>
<rect x="422.423" y="183" width="11" height="69" rx="5.5" transform="rotate(39 422.423 183)" fill="#FDA01F"/>
<circle cx="300" cy="337" r="84" fill="#FDA01F"/>
<ellipse cx="299.5" cy="578.5" rx="299.5" ry="198.5" fill="#0A168F"/>
<ellipse cx="299.5" cy="501.5" rx="263.5" ry="98.5" fill="white"/>
<rect x="294" y="145" width="11" height="69" rx="5.5" fill="#FDA01F"/>
<rect x="-96" y="460" width="791" height="317" fill="white"/>
</g>
<path d="M615.77 385V260.74H649.02C668.02 260.74 682.84 265.87 693.48 276.13C704.12 286.39 709.44 301.78 709.44 322.3C709.44 342.947 704.183 358.59 693.67 369.23C683.157 379.743 668.653 385 650.16 385H615.77ZM637.81 367.14H647.5C660.04 367.14 669.73 363.53 676.57 356.31C683.41 348.963 686.83 337.627 686.83 322.3C686.83 307.1 683.41 296.017 676.57 289.05C669.73 282.083 660.04 278.6 647.5 278.6H637.81V367.14ZM755.23 387.28C747.123 387.28 740.473 384.747 735.28 379.68C730.213 374.613 727.68 368.027 727.68 359.92C727.68 349.913 732.05 342.187 740.79 336.74C749.53 331.167 763.463 327.367 782.59 325.34C782.463 320.4 781.133 316.157 778.6 312.61C776.193 308.937 771.823 307.1 765.49 307.1C760.93 307.1 756.433 307.987 752 309.76C747.693 311.533 743.45 313.687 739.27 316.22L731.29 301.59C736.483 298.297 742.31 295.447 748.77 293.04C755.357 290.633 762.323 289.43 769.67 289.43C781.323 289.43 790 292.913 795.7 299.88C801.527 306.72 804.44 316.663 804.44 329.71V385H786.39L784.87 374.74H784.11C779.93 378.287 775.433 381.263 770.62 383.67C765.933 386.077 760.803 387.28 755.23 387.28ZM762.26 370.18C766.06 370.18 769.48 369.293 772.52 367.52C775.687 365.62 779.043 363.087 782.59 359.92V339.02C769.923 340.667 761.12 343.137 756.18 346.43C751.24 349.597 748.77 353.523 748.77 358.21C748.77 362.39 750.037 365.43 752.57 367.33C755.103 369.23 758.333 370.18 762.26 370.18ZM830.589 385V291.71H852.439V385H830.589ZM841.609 275.37C837.682 275.37 834.515 274.23 832.109 271.95C829.702 269.67 828.499 266.63 828.499 262.83C828.499 259.157 829.702 256.18 832.109 253.9C834.515 251.62 837.682 250.48 841.609 250.48C845.535 250.48 848.702 251.62 851.109 253.9C853.515 256.18 854.719 259.157 854.719 262.83C854.719 266.63 853.515 269.67 851.109 271.95C848.702 274.23 845.535 275.37 841.609 275.37ZM901.595 387.28C893.869 387.28 888.359 384.937 885.065 380.25C881.899 375.563 880.315 369.167 880.315 361.06V250.86H902.165V362.2C902.165 364.86 902.672 366.76 903.685 367.9C904.699 368.913 905.775 369.42 906.915 369.42C907.422 369.42 907.865 369.42 908.245 369.42C908.752 369.293 909.449 369.167 910.335 369.04L913.185 385.38C911.919 385.887 910.272 386.33 908.245 386.71C906.345 387.09 904.129 387.28 901.595 387.28ZM938.167 423.38C935.634 423.38 933.417 423.19 931.517 422.81C929.617 422.43 927.781 421.987 926.007 421.48L929.997 404.38C930.884 404.633 931.897 404.887 933.037 405.14C934.304 405.52 935.507 405.71 936.647 405.71C941.587 405.71 945.514 404.19 948.427 401.15C951.467 398.237 953.747 394.437 955.267 389.75L956.977 383.86L920.307 291.71H942.537L958.687 337.5C960.081 341.553 961.411 345.86 962.677 350.42C964.071 354.853 965.464 359.287 966.857 363.72H967.617C968.757 359.413 969.897 355.043 971.037 350.61C972.304 346.05 973.507 341.68 974.647 337.5L988.707 291.71H1009.8L975.977 389.18C972.051 399.693 967.301 407.99 961.727 414.07C956.154 420.277 948.301 423.38 938.167 423.38ZM1088.14 385L1049.38 260.74H1072.75L1090.23 323.25C1092.25 330.217 1094.09 336.93 1095.74 343.39C1097.38 349.85 1099.22 356.627 1101.25 363.72H1102.01C1104.16 356.627 1106 349.85 1107.52 343.39C1109.16 336.93 1110.94 330.217 1112.84 323.25L1130.13 260.74H1152.74L1114.17 385H1088.14ZM1165.87 385V291.71H1187.72V385H1165.87ZM1176.89 275.37C1172.97 275.37 1169.8 274.23 1167.39 271.95C1164.99 269.67 1163.78 266.63 1163.78 262.83C1163.78 259.157 1164.99 256.18 1167.39 253.9C1169.8 251.62 1172.97 250.48 1176.89 250.48C1180.82 250.48 1183.99 251.62 1186.39 253.9C1188.8 256.18 1190 259.157 1190 262.83C1190 266.63 1188.8 269.67 1186.39 271.95C1183.99 274.23 1180.82 275.37 1176.89 275.37ZM1255.5 387.28C1246.89 387.28 1239.1 385.38 1232.13 381.58C1225.16 377.653 1219.65 372.08 1215.6 364.86C1211.55 357.513 1209.52 348.71 1209.52 338.45C1209.52 328.317 1211.55 319.577 1215.6 312.23C1219.78 304.883 1225.16 299.247 1231.75 295.32C1238.34 291.393 1245.24 289.43 1252.46 289.43C1260.95 289.43 1268.04 291.33 1273.74 295.13C1279.44 298.803 1283.75 303.997 1286.66 310.71C1289.57 317.297 1291.03 324.96 1291.03 333.7C1291.03 338.26 1290.71 341.807 1290.08 344.34H1230.8C1231.81 352.573 1234.79 358.97 1239.73 363.53C1244.67 368.09 1250.88 370.37 1258.35 370.37C1262.4 370.37 1266.14 369.8 1269.56 368.66C1273.11 367.393 1276.59 365.683 1280.01 363.53L1287.42 377.21C1282.99 380.123 1278.05 382.53 1272.6 384.43C1267.15 386.33 1261.45 387.28 1255.5 387.28ZM1230.61 329.52H1272.03C1272.03 322.3 1270.45 316.663 1267.28 312.61C1264.11 308.43 1259.36 306.34 1253.03 306.34C1247.58 306.34 1242.71 308.367 1238.4 312.42C1234.22 316.347 1231.62 322.047 1230.61 329.52ZM1327.29 385L1302.59 291.71H1324.63L1335.84 340.16C1336.85 344.593 1337.67 349.027 1338.31 353.46C1339.07 357.893 1339.89 362.39 1340.78 366.95H1341.54C1342.42 362.39 1343.31 357.893 1344.2 353.46C1345.21 348.9 1346.29 344.467 1347.43 340.16L1359.59 291.71H1379.54L1391.89 340.16C1393.03 344.593 1394.1 349.027 1395.12 353.46C1396.13 357.893 1397.14 362.39 1398.16 366.95H1398.92C1399.8 362.39 1400.63 357.893 1401.39 353.46C1402.15 349.027 1402.97 344.593 1403.86 340.16L1415.07 291.71H1435.59L1411.84 385H1385.81L1374.98 341.49C1373.96 337.057 1373.01 332.687 1372.13 328.38C1371.24 323.947 1370.29 319.26 1369.28 314.32H1368.52C1367.63 319.26 1366.74 323.947 1365.86 328.38C1364.97 332.813 1364.02 337.247 1363.01 341.68L1352.37 385H1327.29Z" fill="#0A168F"/>
<defs>
<clipPath id="clip0_11_18">
<rect width="600" height="600" fill="white"/>
</clipPath>
</defs>
</svg>
