<svg width="512" height="512" viewBox="0 0 512 512" fill="none" xmlns="http://www.w3.org/2000/svg">
<g clip-path="url(#clip0_34_17)">
<rect width="512" height="512" fill="white"/>
<rect y="12" width="512" height="512" fill="white"/>
<circle cx="256" cy="268" r="115" fill="#0A168F"/>
<circle cx="299.5" cy="229.5" r="98.5" fill="white"/>
<path d="M30 236L35.4018 250.598L50 256L35.4018 261.402L30 276L24.5982 261.402L10 256L24.5982 250.598L30 236Z" fill="#0A168F"/>
<path d="M99.5 114L101.526 119.474L107 121.5L101.526 123.526L99.5 129L97.4743 123.526L92 121.5L97.4743 119.474L99.5 114Z" fill="#0A168F"/>
<path d="M394.5 237L396.526 242.474L402 244.5L396.526 246.526L394.5 252L392.474 246.526L387 244.5L392.474 242.474L394.5 237Z" fill="#0A168F"/>
<path d="M109 377L113.321 388.679L125 393L113.321 397.321L109 409L104.679 397.321L93 393L104.679 388.679L109 377Z" fill="#0A168F"/>
<path d="M432 368L436.321 379.679L448 384L436.321 388.321L432 400L427.679 388.321L416 384L427.679 379.679L432 368Z" fill="#0A168F"/>
<path d="M349 167L353.321 178.679L365 183L353.321 187.321L349 199L344.679 187.321L333 183L344.679 178.679L349 167Z" fill="#0A168F"/>
</g>
<defs>
<clipPath id="clip0_34_17">
<rect width="512" height="512" fill="white"/>
</clipPath>
</defs>
</svg>
